<svg width="34" height="37" viewBox="0 0 34 37" fill="none" xmlns="http://www.w3.org/2000/svg">
<path d="M17.5275 0.000190735C16.7753 -0.00656128 16.0084 0.143398 15.2722 0.465176C14.2512 0.911594 13.4004 1.6594 12.8096 2.62908L11.1624 5.33519L6.95351 4.85871C5.99518 4.7499 5.03052 4.89337 4.16394 5.27193C1.40254 6.47884 0.135785 9.71259 1.33914 12.4808L3.62062 17.7271L1.22114 21.6696C0.194002 23.3577 0.144861 25.4019 1.0892 27.1377C2.03354 28.874 3.7741 29.9385 5.74557 29.9868L8.9875 30.0665L10.2307 32.9262C11.4346 35.6939 14.6603 36.9641 17.4217 35.7572C18.2883 35.3781 19.0492 34.7679 19.6221 33.9901L22.2748 30.3885L27.9891 30.5273C28.7998 30.547 29.5802 30.3968 30.3075 30.0788C31.7027 29.4686 32.7892 28.281 33.2888 26.8206C33.7878 25.3613 33.6548 23.8056 32.9118 22.4394L32.5054 21.6926C31.4861 19.8195 29.2453 19.0511 27.2934 19.9042C26.6444 20.1879 26.0758 20.6434 25.6495 21.2227L20.9284 27.6323L10.7846 27.3858L6.67488 17.9366L12.5793 8.23683L18.2216 8.8768C18.9388 8.95812 19.6599 8.85112 20.3072 8.5679C21.3533 8.11083 22.168 7.2221 22.5411 6.12961C22.9132 5.0416 22.812 3.88034 22.2576 2.86075C21.2769 1.0569 19.4496 0.0174446 17.5275 0.000190735ZM17.5127 2.73423C18.4056 2.74686 19.3355 3.17548 19.8729 4.16369C20.1106 4.60114 20.0573 4.99409 19.9712 5.24647C19.8459 5.61269 19.5654 5.9218 19.2214 6.0721C19.0076 6.16576 18.7737 6.19872 18.5264 6.17068L14.1397 5.67284H14.1388L15.128 4.04786C15.4261 3.55825 15.8512 3.18333 16.358 2.9618C16.708 2.8088 17.1068 2.7285 17.5127 2.73423ZM6.28398 7.54592C6.40411 7.54433 6.52572 7.55012 6.64865 7.564L9.60212 7.89918L5.34894 14.8879L3.82877 11.3923C3.15073 9.83377 4.03914 8.29716 5.24978 7.76773C5.57705 7.62472 5.92359 7.55068 6.28398 7.54592ZM4.94656 20.7766L7.79021 27.3127L5.81195 27.265C4.82174 27.2409 3.94834 26.7055 3.47393 25.8339C2.99952 24.9619 3.02368 23.935 3.53949 23.0876L4.94656 20.7766ZM28.9504 22.2874C29.3928 22.294 29.8541 22.5072 30.1206 22.9972L30.5263 23.7432C30.9 24.4302 30.9692 25.2089 30.7197 25.9375C30.4668 26.6766 29.9204 27.2771 29.2217 27.5822C28.8591 27.7403 28.467 27.8151 28.0547 27.8056L24.2457 27.7128H24.2448L27.8342 22.8403C27.9802 22.6423 28.1638 22.4947 28.3792 22.4C28.5526 22.3242 28.7493 22.2844 28.9504 22.2874ZM11.9819 30.1388L18.9575 30.3088L17.4365 32.3717C17.1422 32.7715 16.7723 33.0707 16.3359 33.2614C15.1253 33.7908 13.3992 33.397 12.7211 31.8385L11.9819 30.1396V30.1388Z" fill="#4D4D4D"/>
</svg>
